<svg xmlns="http://www.w3.org/2000/svg" width="1060" height="300" viewBox="0 0 1060 300"><defs>
  <linearGradient id="tileBg-m" x1="0" y1="0" x2="1" y2="1">
    <stop offset="0" stop-color="#0B2448"/>
    <stop offset="0.55" stop-color="#061936"/>
    <stop offset="1" stop-color="#031022"/>
  </linearGradient>
  <radialGradient id="glowGold-m" cx="0.5" cy="0.5" r="0.5">
    <stop offset="0" stop-color="#F6C95B" stop-opacity="0.20"/>
    <stop offset="0.55" stop-color="#F6C95B" stop-opacity="0.06"/>
    <stop offset="1" stop-color="#F6C95B" stop-opacity="0"/>
  </radialGradient>
  <linearGradient id="sheen-m" x1="0" y1="0" x2="0.6" y2="1">
    <stop offset="0" stop-color="#FFFFFF" stop-opacity="0.10"/>
    <stop offset="0.4" stop-color="#FFFFFF" stop-opacity="0"/>
  </linearGradient>
</defs><rect x="40" y="40" width="220" height="220" rx="48" fill="url(#tileBg-m)"/><rect x="40" y="40" width="220" height="220" rx="48" fill="url(#sheen-m)"/><rect x="41" y="41" width="218" height="218" rx="47" fill="none" stroke="#FFFFFF" stroke-opacity="0.16" stroke-width="2"/><g transform="translate(64.20 69.90) scale(0.33516)"><circle cx="256.0" cy="196.0" r="150" fill="url(#glowGold-m)"/><path d="M 189.24 169.03 A 72 72 0 0 1 322.76 169.03" fill="none" stroke="#7DDCFF" stroke-width="19" stroke-linecap="round" opacity="1.0"/><path d="M 152.16 154.04 A 112 112 0 0 1 359.84 154.04" fill="none" stroke="#54A8FF" stroke-width="19" stroke-linecap="round" opacity="0.92"/><path d="M 115.07 139.06 A 152 152 0 0 1 396.93 139.06" fill="none" stroke="#2D8CFF" stroke-width="19" stroke-linecap="round" opacity="0.85"/><circle cx="256.0" cy="196.0" r="31" fill="#F6C95B"/><circle cx="256.0" cy="196.0" r="44" fill="none" stroke="#F6C95B" stroke-width="3" opacity="0.35"/><path d="M 108 312 C 108 396 176 424 256 424 C 336 424 404 396 404 312" fill="none" stroke="#2D8CFF" stroke-width="20" stroke-linecap="round"/><path d="M 245 236 L 267 236 L 274 388 Q 256 396 238 388 Z" fill="#EAF3FF" opacity="0.92"/></g><g transform="translate(316.00 148.00)" fill="#0B2448"><path transform="translate(0.000 0) scale(0.03711 -0.03711)" d="M681.2990112304688 -21.68017578125Q502.479736328125 -21.68017578125 369.9403076171875 33.289703369140625Q237.40087890625 88.25958251953125 163.38116455078125 196.06900024414062Q89.3614501953125 303.87841796875 84.6812744140625 462.3570556640625H381.73712158203125Q387.57720947265625 386.9967041015625 426.5876159667969 336.5465393066406Q465.5980224609375 286.09637451171875 530.7584838867188 260.9463195800781Q595.9189453125 235.7962646484375 678.0591430664062 235.7962646484375Q759.6199340820312 235.7962646484375 820.4107360839844 259.61663818359375Q881.2015380859375 283.43701171875 914.9720764160156 326.4277038574219Q948.7426147460938 369.41839599609375 948.7426147460938 425.73931884765625Q948.7426147460938 477.22015380859375 918.502197265625 511.6905822753906Q888.2617797851562 546.1610107421875 830.9813842773438 570.8411865234375Q773.7009887695312 595.5213623046875 692.0810546875 614.8214721679688L528.2803955078125 655.5618896484375Q339.10076904296875 701.7020874023438 231.81106567382812 800.2119445800781Q124.5213623046875 898.7218017578125 124.5213623046875 1061.3012084960938Q124.5213623046875 1195.9408569335938 197.38116455078125 1296.9205932617188Q270.240966796875 1397.9003295898438 396.7705383300781 1453.9501647949219Q523.3001098632812 1510 685.119384765625 1510Q850.4786376953125 1510 973.4682312011719 1453.4101867675781Q1096.4578247070312 1396.8203735351562 1165.1976928710938 1296.5208129882812Q1233.9375610351562 1196.2212524414062 1236.317626953125 1065.4019775390625H941.2420654296875Q932.5618896484375 1154.9627685546875 864.5109558105469 1204.2031860351562Q796.4600219726562 1253.443603515625 682.3592529296875 1253.443603515625Q604.718505859375 1253.443603515625 549.7677917480469 1231.1232299804688Q494.81707763671875 1208.8028564453125 466.1566162109375 1169.6922302246094Q437.49615478515625 1130.5816040039062 437.49615478515625 1080.560791015625Q437.49615478515625 1025.7798461914062 470.87677001953125 989.619384765625Q504.25738525390625 953.4589233398438 558.8778686523438 930.73876953125Q613.4983520507812 908.0186157226562 676.1380004882812 893.0186157226562L810.55859375 860.1182861328125Q904.5772094726562 838.718505859375 985.7168579101562 802.6188354492188Q1066.8565063476562 766.5191650390625 1127.7267150878906 714.0794067382812Q1188.596923828125 661.6396484375 1222.457275390625 589.8696594238281Q1256.317626953125 518.0996704101562 1256.317626953125 424.3592529296875Q1256.317626953125 288.85980224609375 1187.9578247070312 188.42990112304688Q1119.5980224609375 88 991.038330078125 33.159912109375Q862.4786376953125 -21.68017578125 681.2990112304688 -21.68017578125Z"/><path transform="translate(49.764 0) scale(0.03711 -0.03711)" d="M440.22125244140625 -21.68017578125Q333.6812744140625 -21.68017578125 249.3411865234375 15.889923095703125Q165.0010986328125 53.46002197265625 116.70098876953125 127.7601318359375Q68.40087890625 202.06024169921875 68.40087890625 312.6002197265625Q68.40087890625 406.4403076171875 102.62103271484375 469.14019775390625Q136.8411865234375 531.840087890625 196.29135131835938 570.1199340820312Q255.74151611328125 608.3997802734375 331.3915710449219 628.3696594238281Q407.0416259765625 648.3395385742188 489.90142822265625 656.1796264648438Q586.6615600585938 665.9397583007812 646.1517028808594 674.5596923828125Q705.641845703125 683.1796264648438 733.4419555664062 701.5295715332031Q761.2420654296875 719.8795166015625 761.2420654296875 756.0197143554688V760.9397583007812Q761.2420654296875 808.8006591796875 740.9118347167969 841.9112854003906Q720.5816040039062 875.0219116210938 681.5410766601562 892.6522521972656Q642.5005493164062 910.2825927734375 585.5596923828125 910.2825927734375Q528.23876953125 910.2825927734375 485.2781982421875 892.84228515625Q442.317626953125 875.4019775390625 414.91729736328125 846.2716369628906Q387.5169677734375 817.1412963867188 375.45672607421875 780.8411865234375L100.40087890625 826.5016479492188Q128.82147216796875 924.1818237304688 195.8817138671875 992.2113952636719Q262.94195556640625 1060.240966796875 362.5514831542969 1096.1204833984375Q462.1610107421875 1132 586.4994506835938 1132Q676.51806640625 1132 761.5175170898438 1110.6703186035156Q846.5169677734375 1089.3406372070312 914.096923828125 1043.9408569335938Q981.6768798828125 998.5410766601562 1021.3970336914062 926.5208129882812Q1061.1171875 854.5005493164062 1061.1171875 752.6593627929688V0H776.6615600585938V155.2398681640625H766.8214721679688Q739.7218017578125 103.2803955078125 694.7519226074219 63.40032958984375Q649.7820434570312 23.520263671875 586.5618896484375 0.9200439453125Q523.3417358398438 -21.68017578125 440.22125244140625 -21.68017578125ZM524.6790771484375 188.61773681640625Q595.520263671875 188.61773681640625 649.1308898925781 216.81817626953125Q702.7415161132812 245.01861572265625 733.0717468261719 292.939208984375Q763.4019775390625 340.85980224609375 763.4019775390625 399.68017578125V520.6615600585938Q749.7020874023438 511.44140625 722.961669921875 503.3713073730469Q696.2212524414062 495.30120849609375 663.3006591796875 488.921142578125Q630.3800659179688 482.54107666015625 598.299560546875 477.8510437011719Q566.2190551757812 473.1610107421875 541.2990112304688 469.62103271484375Q486.01861572265625 462.1610107421875 444.0980224609375 444.28094482421875Q402.17742919921875 426.40087890625 378.97698974609375 396.4605712890625Q355.77655029296875 366.520263671875 355.77655029296875 321.41949462890625Q355.77655029296875 277.9989013671875 377.6768798828125 248.44851684570312Q399.57720947265625 218.89813232421875 437.53778076171875 203.7579345703125Q475.49835205078125 188.61773681640625 524.6790771484375 188.61773681640625Z"/><path transform="translate(93.887 0) scale(0.03711 -0.03711)" d="M749.8170776367188 1118V889.4830322265625H20V1118ZM217.3209228515625 0V1203.8225708007812Q217.3209228515625 1322.961669921875 264.7108459472656 1402.0010986328125Q312.10076904296875 1481.04052734375 394.2803955078125 1520.520263671875Q476.46002197265625 1560 579.59912109375 1560Q650.6188354492188 1560 709.0881652832031 1548.6900329589844Q767.5574951171875 1537.3800659179688 795.1171875 1528.9200439453125L740.79736328125 1302.56298828125Q722.4775390625 1308.1029663085938 696.7376708984375 1313.0230102539062Q670.997802734375 1317.9430541992188 641.0974731445312 1317.9430541992188Q572.6768798828125 1317.9430541992188 544.396484375 1285.4326477050781Q516.1160888671875 1252.9222412109375 516.1160888671875 1194.0613403320312V0Z"/><path transform="translate(124.131 0) scale(0.03711 -0.03711)" d="M633.3997802734375 -21.840087890625Q462.22015380859375 -21.840087890625 338.24041748046875 48.269989013671875Q214.26068115234375 118.38006591796875 147.79080200195312 247.38006591796875Q81.3209228515625 376.38006591796875 81.3209228515625 553.2398681640625Q81.3209228515625 725.7798461914062 147.37075805664062 855.9698791503906Q213.42059326171875 986.159912109375 334.2102966308594 1059.0799560546875Q455 1132 618.3395385742188 1132Q727.8587036132812 1132 822.9983520507812 1097.1002197265625Q918.1380004882812 1062.200439453125 989.9879455566406 991.8406372070312Q1061.837890625 921.4808349609375 1102.2179565429688 815.0208129882812Q1142.5980224609375 708.560791015625 1142.5980224609375 564.9003295898438V480.720703125H204.40087890625V669.439208984375H996.4600219726562L856.3023071289062 618.8389892578125Q856.3023071289062 706.159912109375 829.6319885253906 770.6007690429688Q802.961669921875 835.0416259765625 750.6210327148438 870.5821533203125Q698.2803955078125 906.1226806640625 620.4994506835938 906.1226806640625Q542.718505859375 906.1226806640625 488.53778076171875 870.1221313476562Q434.3570556640625 834.12158203125 406.07666015625 772.4408569335938Q377.7962646484375 710.7601318359375 377.7962646484375 632.1796264648438V499.3209228515625Q377.7962646484375 402.31982421875 410.2666931152344 336.3389892578125Q442.73712158203125 270.358154296875 501.6078796386719 237.19769287109375Q560.4786376953125 204.0372314453125 638.1796264648438 204.0372314453125Q690.68017578125 204.0372314453125 733.6106262207031 218.98739624023438Q776.5410766601562 233.93756103515625 807.44140625 263.2579345703125Q838.3417358398438 292.57830810546875 854.48193359375 335.53887939453125L1125.677978515625 285.37896728515625Q1098.5980224609375 192.73931884765625 1031.7382202148438 123.60952758789062Q964.87841796875 54.479736328125 864.1987915039062 16.31982421875Q763.5191650390625 -21.840087890625 633.3997802734375 -21.840087890625Z"/><path transform="translate(169.404 0) scale(0.03711 -0.03711)" d="M427.6363525390625 647.3209228515625V0H127.76123046875V1490H422.236572265625V838.9003295898438H397.71630859375Q441.69659423828125 978.7809448242188 531.3367919921875 1055.3904724121094Q620.9769897460938 1132 762.556396484375 1132Q878.7962646484375 1132 965.376220703125 1081.4501647949219Q1051.9561767578125 1030.9003295898438 1099.7261657714844 936.5903625488281Q1147.4961547851562 842.2803955078125 1147.4961547851562 711.0799560546875V0H847.1610107421875V658.8214721679688Q847.1610107421875 762.9824829101562 793.4304504394531 822.2130432128906Q739.6998901367188 881.443603515625 644.8389892578125 881.443603515625Q581.5783081054688 881.443603515625 532.4277038574219 853.7333068847656Q483.277099609375 826.0230102539062 455.45672607421875 773.8724060058594Q427.6363525390625 721.7218017578125 427.6363525390625 647.3209228515625Z"/><path transform="translate(216.719 0) scale(0.03711 -0.03711)" d="M440.22125244140625 -21.68017578125Q333.6812744140625 -21.68017578125 249.3411865234375 15.889923095703125Q165.0010986328125 53.46002197265625 116.70098876953125 127.7601318359375Q68.40087890625 202.06024169921875 68.40087890625 312.6002197265625Q68.40087890625 406.4403076171875 102.62103271484375 469.14019775390625Q136.8411865234375 531.840087890625 196.29135131835938 570.1199340820312Q255.74151611328125 608.3997802734375 331.3915710449219 628.3696594238281Q407.0416259765625 648.3395385742188 489.90142822265625 656.1796264648438Q586.6615600585938 665.9397583007812 646.1517028808594 674.5596923828125Q705.641845703125 683.1796264648438 733.4419555664062 701.5295715332031Q761.2420654296875 719.8795166015625 761.2420654296875 756.0197143554688V760.9397583007812Q761.2420654296875 808.8006591796875 740.9118347167969 841.9112854003906Q720.5816040039062 875.0219116210938 681.5410766601562 892.6522521972656Q642.5005493164062 910.2825927734375 585.5596923828125 910.2825927734375Q528.23876953125 910.2825927734375 485.2781982421875 892.84228515625Q442.317626953125 875.4019775390625 414.91729736328125 846.2716369628906Q387.5169677734375 817.1412963867188 375.45672607421875 780.8411865234375L100.40087890625 826.5016479492188Q128.82147216796875 924.1818237304688 195.8817138671875 992.2113952636719Q262.94195556640625 1060.240966796875 362.5514831542969 1096.1204833984375Q462.1610107421875 1132 586.4994506835938 1132Q676.51806640625 1132 761.5175170898438 1110.6703186035156Q846.5169677734375 1089.3406372070312 914.096923828125 1043.9408569335938Q981.6768798828125 998.5410766601562 1021.3970336914062 926.5208129882812Q1061.1171875 854.5005493164062 1061.1171875 752.6593627929688V0H776.6615600585938V155.2398681640625H766.8214721679688Q739.7218017578125 103.2803955078125 694.7519226074219 63.40032958984375Q649.7820434570312 23.520263671875 586.5618896484375 0.9200439453125Q523.3417358398438 -21.68017578125 440.22125244140625 -21.68017578125ZM524.6790771484375 188.61773681640625Q595.520263671875 188.61773681640625 649.1308898925781 216.81817626953125Q702.7415161132812 245.01861572265625 733.0717468261719 292.939208984375Q763.4019775390625 340.85980224609375 763.4019775390625 399.68017578125V520.6615600585938Q749.7020874023438 511.44140625 722.961669921875 503.3713073730469Q696.2212524414062 495.30120849609375 663.3006591796875 488.921142578125Q630.3800659179688 482.54107666015625 598.299560546875 477.8510437011719Q566.2190551757812 473.1610107421875 541.2990112304688 469.62103271484375Q486.01861572265625 462.1610107421875 444.0980224609375 444.28094482421875Q402.17742919921875 426.40087890625 378.97698974609375 396.4605712890625Q355.77655029296875 366.520263671875 355.77655029296875 321.41949462890625Q355.77655029296875 277.9989013671875 377.6768798828125 248.44851684570312Q399.57720947265625 218.89813232421875 437.53778076171875 203.7579345703125Q475.49835205078125 188.61773681640625 524.6790771484375 188.61773681640625Z"/><path transform="translate(260.842 0) scale(0.03711 -0.03711)" d="M127.76123046875 0V1118H418.396484375V923.3209228515625H430.396484375Q460.85650634765625 1026.68017578125 533.3367919921875 1079.8001098632812Q605.8170776367188 1132.9200439453125 699.8773193359375 1132.9200439453125Q723.1171875 1132.9200439453125 749.8072204589844 1130.3001098632812Q776.4972534179688 1127.68017578125 796.8170776367188 1122.9003295898438V854.9638671875Q776.9375610351562 861.8236694335938 738.7278137207031 866.0936584472656Q700.51806640625 870.3636474609375 667.2179565429688 870.3636474609375Q598.5574951171875 870.3636474609375 543.9671325683594 840.6434936523438Q489.37677001953125 810.92333984375 458.5065612792969 758.3630981445312Q427.6363525390625 705.8028564453125 427.6363525390625 636.2825927734375V0Z"/><path transform="translate(291.791 0) scale(0.03711 -0.03711)" d="M754.2168579101562 -18.6002197265625Q663.3362426757812 -18.6002197265625 600.2261657714844 12.230010986328125Q537.1160888671875 43.06024169921875 497.7962646484375 88.48028564453125Q458.4764404296875 133.90032958984375 437.3165283203125 178.93975830078125H422.71630859375V0H127.76123046875V1490H427.6363525390625V929.8203735351562H437.3165283203125Q457.93646240234375 974.3997802734375 496.25628662109375 1021.2497253417969Q534.5761108398438 1068.0996704101562 597.7661437988281 1100.0498352050781Q660.9561767578125 1132 755.916748046875 1132Q880.2573852539062 1132 982.9775390625 1067.9397583007812Q1085.6976928710938 1003.8795166015625 1147.5476379394531 875.9994506835938Q1209.3975830078125 748.119384765625 1209.3975830078125 557.0799560546875Q1209.3975830078125 370.98028564453125 1149.3975830078125 242.6002197265625Q1089.3975830078125 114.22015380859375 986.4074401855469 47.809967041015625Q883.4172973632812 -18.6002197265625 754.2168579101562 -18.6002197265625ZM661.8795166015625 221.77655029296875Q740.4205932617188 221.77655029296875 793.6412963867188 264.777099609375Q846.8619995117188 307.77764892578125 874.2623291015625 383.83843994140625Q901.6626586914062 459.89923095703125 901.6626586914062 558Q901.6626586914062 656.1807250976562 874.4923400878906 731.3214721679688Q847.322021484375 806.4622192382812 794.101318359375 849.042724609375Q740.880615234375 891.6232299804688 661.8795166015625 891.6232299804688Q584.7984619140625 891.6232299804688 530.997802734375 850.4227905273438Q477.1971435546875 809.2223510742188 449.2568359375 734.5416259765625Q421.3165283203125 659.8609008789062 421.3165283203125 558Q421.3165283203125 457.21905517578125 449.4868469238281 381.65826416015625Q477.65716552734375 306.09747314453125 531.6878356933594 263.93701171875Q585.718505859375 221.77655029296875 661.8795166015625 221.77655029296875Z"/><path transform="translate(339.699 0) scale(0.03711 -0.03711)" d="M628.119384765625 -21.840087890625Q459.9200439453125 -21.840087890625 337.0503845214844 50.429901123046875Q214.18072509765625 122.69989013671875 147.75082397460938 252.42990112304688Q81.3209228515625 382.159912109375 81.3209228515625 554.159912109375Q81.3209228515625 727.5399780273438 147.75082397460938 857.5Q214.18072509765625 987.4600219726562 337.0503845214844 1059.7300109863281Q459.9200439453125 1132 628.119384765625 1132Q796.7787475585938 1132 919.3384399414062 1059.7300109863281Q1041.8981323242188 987.4600219726562 1108.3280334472656 857.5Q1174.7579345703125 727.5399780273438 1174.7579345703125 554.159912109375Q1174.7579345703125 382.159912109375 1108.3280334472656 252.42990112304688Q1041.8981323242188 122.69989013671875 919.3384399414062 50.429901123046875Q796.7787475585938 -21.840087890625 628.119384765625 -21.840087890625ZM628.119384765625 214.21685791015625Q708.1807250976562 214.21685791015625 762.0115051269531 258.7174072265625Q815.84228515625 303.21795654296875 842.7426147460938 380.43865966796875Q869.6429443359375 457.65936279296875 869.6429443359375 555.2398681640625Q869.6429443359375 653.8203735351562 842.7426147460938 730.6911315917969Q815.84228515625 807.5618896484375 762.0115051269531 851.7524719238281Q708.1807250976562 895.9430541992188 628.119384765625 895.9430541992188Q547.9780883789062 895.9430541992188 494.33734130859375 851.7524719238281Q440.69659423828125 807.5618896484375 413.7962646484375 730.921142578125Q386.89593505859375 654.2803955078125 386.89593505859375 555.2398681640625Q386.89593505859375 457.65936279296875 413.7962646484375 380.43865966796875Q440.69659423828125 303.21795654296875 494.33734130859375 258.7174072265625Q547.9780883789062 214.21685791015625 628.119384765625 214.21685791015625Z"/><path transform="translate(386.309 0) scale(0.03711 -0.03711)" d="M127.76123046875 0V1118H418.396484375V923.3209228515625H430.396484375Q460.85650634765625 1026.68017578125 533.3367919921875 1079.8001098632812Q605.8170776367188 1132.9200439453125 699.8773193359375 1132.9200439453125Q723.1171875 1132.9200439453125 749.8072204589844 1130.3001098632812Q776.4972534179688 1127.68017578125 796.8170776367188 1122.9003295898438V854.9638671875Q776.9375610351562 861.8236694335938 738.7278137207031 866.0936584472656Q700.51806640625 870.3636474609375 667.2179565429688 870.3636474609375Q598.5574951171875 870.3636474609375 543.9671325683594 840.6434936523438Q489.37677001953125 810.92333984375 458.5065612792969 758.3630981445312Q427.6363525390625 705.8028564453125 427.6363525390625 636.2825927734375V0Z"/></g><g transform="translate(318.00 208.00)" fill="#51627C"><path transform="translate(0.000 0) scale(0.01611 -0.01611)" d="M164.880615234375 0V1490H1102.7593994140625V1293.5611572265625H393.3990478515625V849.679443359375H1052.4994506835938V654.6805419921875H393.3990478515625V196.4388427734375H1109.4194946289062V0Z"/><path transform="translate(19.900 0) scale(0.01611 -0.01611)" d="M468.22052001953125 0 46.4403076171875 1118H283.93865966796875L505.1993408203125 482.53887939453125Q542.119384765625 377.73895263671875 568.2593994140625 272.35906982421875Q594.3994140625 166.97918701171875 622.679443359375 63.41949462890625H557.2194213867188Q585.3194580078125 166.97918701171875 611.3694763183594 272.2690734863281Q637.4194946289062 377.5589599609375 673.3395385742188 482.53887939453125L893.8802490234375 1118H1130.2986450195312L708.158447265625 0Z"/><path transform="translate(38.865 0) scale(0.01611 -0.01611)" d="M629.7999267578125 -23.280029296875Q464.74005126953125 -23.280029296875 345.08013916015625 48.089996337890625Q225.42022705078125 119.46002197265625 160.93026733398438 248.46002197265625Q96.4403076171875 377.46002197265625 96.4403076171875 551.0799560546875Q96.4403076171875 723.2599487304688 159.79025268554688 853.9899597167969Q223.14019775390625 984.719970703125 339.0700988769531 1058.3599853515625Q455 1132 610.7798461914062 1132Q706.6195678710938 1132 795.9994506835938 1100.7000732421875Q885.3793334960938 1069.400146484375 956.3293151855469 1002.2802124023438Q1027.279296875 935.1602783203125 1068.7393188476562 828.3402709960938Q1110.1993408203125 721.520263671875 1110.1993408203125 570.3001098632812V492.240234375H218.80029296875V656.479736328125H996.8200073242188L894.1007690429688 602.2796630859375Q894.1007690429688 704.719970703125 862.2106628417969 783.2002563476562Q830.320556640625 861.6805419921875 767.5403442382812 905.8607177734375Q704.7601318359375 950.0408935546875 611.4998168945312 950.0408935546875Q518.239501953125 950.0408935546875 452.17926025390625 905.0407104492188Q386.1190185546875 860.04052734375 351.35888671875 786.4802856445312Q316.5987548828125 712.9200439453125 316.5987548828125 626.0598754882812V514.4403076171875Q316.5987548828125 399.43994140625 356.0888977050781 319.7796630859375Q395.57904052734375 240.119384765625 466.8692932128906 199.39923095703125Q538.1595458984375 158.6790771484375 632.0598754882812 158.6790771484375Q693.56005859375 158.6790771484375 743.8702087402344 176.32913208007812Q794.1803588867188 193.97918701171875 830.48046875 229.4193115234375Q866.7805786132812 264.85943603515625 886.16064453125 317.17962646484375L1092.559326171875 268.45965576171875Q1066.1993408203125 181.57977294921875 1002.5794067382812 115.86984252929688Q938.95947265625 50.159912109375 844.3995971679688 13.43994140625Q749.8397216796875 -23.280029296875 629.7999267578125 -23.280029296875Z"/><path transform="translate(58.250 0) scale(0.01611 -0.01611)" d="M147.92041015625 0V1118H360.798828125V938.4403076171875H372.798828125Q403.61883544921875 1029.56005859375 480.7789306640625 1081.6000366210938Q557.9390258789062 1133.6400146484375 655.9591064453125 1133.6400146484375Q677.0390625 1133.6400146484375 704.2690734863281 1132.1000366210938Q731.4990844726562 1130.56005859375 748.9390258789062 1128.3001098632812V918.3212890625Q736.9791870117188 921.9412231445312 702.9092712402344 926.0312194824219Q668.83935546875 930.1212158203125 633.7393188476562 930.1212158203125Q557.5191650390625 930.1212158203125 496.9890441894531 897.8811645507812Q436.45892333984375 865.64111328125 402.1688537597656 809.1210327148438Q367.8787841796875 752.6009521484375 367.8787841796875 678.7608642578125V0Z"/><path transform="translate(71.011 0) scale(0.01611 -0.01611)" d="M133.34027099609375 -401.94012451171875 186.89996337890625 -222.54107666015625 211.8397216796875 -229.1610107421875Q268.81964111328125 -243.70098876953125 314.359619140625 -237.02099609375Q359.89959716796875 -230.34100341796875 393.37969970703125 -194.680908203125Q426.85980224609375 -159.02081298828125 446.840087890625 -87.1204833984375L471.10040283203125 -5.10003662109375L46.4403076171875 1118H283.93865966796875L505.1993408203125 482.53887939453125Q542.119384765625 376.5589599609375 566.5894470214844 271.9490661621094Q591.0595092773438 167.33917236328125 619.51953125 63.41949462890625H552.2595825195312Q580.7196044921875 167.33917236328125 607.3096008300781 272.5390625Q633.8995971679688 377.73895263671875 670.5396118164062 482.53887939453125L896.1401977539062 1118H1131.7385864257812L646.1383666992188 -155.30047607421875Q612.1383666992188 -244.66046142578125 562.7484436035156 -305.04034423828125Q513.3585205078125 -365.42022705078125 445.0487365722656 -395.7101135253906Q376.73895263671875 -426 286.57940673828125 -426Q234.799560546875 -426 194.039794921875 -418.46002197265625Q153.280029296875 -410.9200439453125 133.34027099609375 -401.94012451171875Z"/><path transform="translate(98.791 0) scale(0.01611 -0.01611)" d="M617.8598022460938 -23.280029296875Q460.46002197265625 -23.280029296875 343.2601318359375 48.809967041015625Q226.06024169921875 120.89996337890625 161.25027465820312 250.80996704101562Q96.4403076171875 380.719970703125 96.4403076171875 552.719970703125Q96.4403076171875 727.1799926757812 161.25027465820312 857.5Q226.06024169921875 987.8200073242188 343.2601318359375 1059.9100036621094Q460.46002197265625 1132 617.8598022460938 1132Q705.1595458984375 1132 781.119384765625 1109.3800659179688Q857.0792236328125 1086.7601318359375 918.379150390625 1044.3802490234375Q979.6790771484375 1002.0003662109375 1022.319091796875 940.7205200195312Q1064.9591064453125 879.440673828125 1085.6192016601562 802.120849609375L877.3406372070312 752.0408935546875Q866.2406005859375 795.2208862304688 843.3105163574219 830.7709045410156Q820.3804321289062 866.3209228515625 787.6703186035156 892.1909484863281Q754.960205078125 918.0609741210938 712.4700622558594 932.02099609375Q669.9799194335938 945.9810180664062 618.9397583007812 945.9810180664062Q517.559326171875 945.9810180664062 451.49908447265625 892.6108093261719Q385.4388427734375 839.2406005859375 352.8687438964844 750.3603515625Q320.29864501953125 661.4801025390625 320.29864501953125 553.0799560546875Q320.29864501953125 446.49981689453125 352.8687438964844 357.8495788574219Q385.4388427734375 269.1993408203125 451.49908447265625 215.96914672851562Q517.559326171875 162.73895263671875 618.9397583007812 162.73895263671875Q670.7999267578125 162.73895263671875 714.1100769042969 177.198974609375Q757.4202270507812 191.65899658203125 791.0403442382812 218.43902587890625Q824.6604614257812 245.21905517578125 847.5905456542969 282.6790771484375Q870.5206298828125 320.13909912109375 881.440673828125 365.13909912109375L1088.8992309570312 315.2391357421875Q1069.0591430664062 235.73931884765625 1026.0091247558594 173.45947265625Q982.9591064453125 111.17962646484375 921.3391723632812 66.979736328125Q859.71923828125 22.77984619140625 782.8493957519531 -0.250091552734375Q705.9795532226562 -23.280029296875 617.8598022460938 -23.280029296875Z"/><path transform="translate(117.836 0) scale(0.01611 -0.01611)" d="M367.8787841796875 1490V0H147.92041015625V1490Z"/><path transform="translate(126.151 0) scale(0.01611 -0.01611)" d="M147.92041015625 0V1118H367.8787841796875V0ZM258.53961181640625 1288.5805053710938Q201.9598388671875 1288.5805053710938 161.17999267578125 1327.009951619707Q120.400146484375 1365.4393978683202 120.400146484375 1419.2406226163785Q120.400146484375 1474.1398315429688 161.17999267578125 1512.0596923828125Q201.9598388671875 1549.9795532226562 258.53961181640625 1549.9795532226562Q315.8879656110491 1549.9795532226562 356.6935250418527 1512.0789773123606Q397.49908447265625 1474.1784014020648 397.49908447265625 1419.2500305175781Q397.49908447265625 1365.4202270507812 356.6935250418527 1327.0003662109375Q315.8879656110491 1288.5805053710938 258.53961181640625 1288.5805053710938Z"/><path transform="translate(134.465 0) scale(0.01611 -0.01611)" d="M629.7999267578125 -23.280029296875Q464.74005126953125 -23.280029296875 345.08013916015625 48.089996337890625Q225.42022705078125 119.46002197265625 160.93026733398438 248.46002197265625Q96.4403076171875 377.46002197265625 96.4403076171875 551.0799560546875Q96.4403076171875 723.2599487304688 159.79025268554688 853.9899597167969Q223.14019775390625 984.719970703125 339.0700988769531 1058.3599853515625Q455 1132 610.7798461914062 1132Q706.6195678710938 1132 795.9994506835938 1100.7000732421875Q885.3793334960938 1069.400146484375 956.3293151855469 1002.2802124023438Q1027.279296875 935.1602783203125 1068.7393188476562 828.3402709960938Q1110.1993408203125 721.520263671875 1110.1993408203125 570.3001098632812V492.240234375H218.80029296875V656.479736328125H996.8200073242188L894.1007690429688 602.2796630859375Q894.1007690429688 704.719970703125 862.2106628417969 783.2002563476562Q830.320556640625 861.6805419921875 767.5403442382812 905.8607177734375Q704.7601318359375 950.0408935546875 611.4998168945312 950.0408935546875Q518.239501953125 950.0408935546875 452.17926025390625 905.0407104492188Q386.1190185546875 860.04052734375 351.35888671875 786.4802856445312Q316.5987548828125 712.9200439453125 316.5987548828125 626.0598754882812V514.4403076171875Q316.5987548828125 399.43994140625 356.0888977050781 319.7796630859375Q395.57904052734375 240.119384765625 466.8692932128906 199.39923095703125Q538.1595458984375 158.6790771484375 632.0598754882812 158.6790771484375Q693.56005859375 158.6790771484375 743.8702087402344 176.32913208007812Q794.1803588867188 193.97918701171875 830.48046875 229.4193115234375Q866.7805786132812 264.85943603515625 886.16064453125 317.17962646484375L1092.559326171875 268.45965576171875Q1066.1993408203125 181.57977294921875 1002.5794067382812 115.86984252929688Q938.95947265625 50.159912109375 844.3995971679688 13.43994140625Q749.8397216796875 -23.280029296875 629.7999267578125 -23.280029296875Z"/><path transform="translate(153.850 0) scale(0.01611 -0.01611)" d="M367.8787841796875 662.4403076171875V0H147.92041015625V1118H357.638916015625L359.89886474609375 844.3001098632812H337.23876953125Q385.89886474609375 994.2603149414062 478.7789306640625 1063.1301574707031Q571.6589965820312 1132 703.518798828125 1132Q817.5987548828125 1132 903.0487365722656 1084.1500549316406Q988.4987182617188 1036.3001098632812 1036.0887145996094 942.5301208496094Q1083.6787109375 848.7601318359375 1083.6787109375 710.3599853515625V0H863.7203369140625V682.9404907226562Q863.7203369140625 803.6608276367188 800.8101501464844 872.0710144042969Q737.8999633789062 940.481201171875 628.2796630859375 940.481201171875Q553.8594360351562 940.481201171875 494.8092346191406 907.9111022949219Q435.759033203125 875.3410034179688 401.81890869140625 813.2908020019531Q367.8787841796875 751.2406005859375 367.8787841796875 662.4403076171875Z"/><path transform="translate(173.701 0) scale(0.01611 -0.01611)" d="M626.4388427734375 1118V939.1610107421875H20V1118ZM183.3201904296875 1384H403.278564453125V302.41949462890625Q403.278564453125 234.61920166015625 431.5286560058594 203.1790771484375Q459.77874755859375 171.73895263671875 525.198974609375 171.73895263671875Q542.3789672851562 171.73895263671875 570.3189086914062 175.82894897460938Q598.2588500976562 179.9189453125 618.2789306640625 183.9189453125L657.2588500976562 7.61993408203125Q621.879150390625 -4 581.7893371582031 -9.269989013671875Q541.6995239257812 -14.53997802734375 503.2796630859375 -14.53997802734375Q350.53997802734375 -14.53997802734375 266.9300842285156 63.669952392578125Q183.3201904296875 141.8798828125 183.3201904296875 284.2796630859375Z"/><path transform="translate(193.730 0) scale(0.01611 -0.01611)" d="M147.92041015625 0V1118H367.8787841796875V0ZM258.53961181640625 1288.5805053710938Q201.9598388671875 1288.5805053710938 161.17999267578125 1327.009951619707Q120.400146484375 1365.4393978683202 120.400146484375 1419.2406226163785Q120.400146484375 1474.1398315429688 161.17999267578125 1512.0596923828125Q201.9598388671875 1549.9795532226562 258.53961181640625 1549.9795532226562Q315.8879656110491 1549.9795532226562 356.6935250418527 1512.0789773123606Q397.49908447265625 1474.1784014020648 397.49908447265625 1419.2500305175781Q397.49908447265625 1365.4202270507812 356.6935250418527 1327.0003662109375Q315.8879656110491 1288.5805053710938 258.53961181640625 1288.5805053710938Z"/><path transform="translate(202.044 0) scale(0.01611 -0.01611)" d="M549.3395385742188 -23.280029296875Q427.6798095703125 -23.280029296875 333.32000732421875 11.929901123046875Q238.960205078125 47.13983154296875 178.35031127929688 115.56973266601562Q117.74041748046875 183.9996337890625 97.92041015625 282.51953125L305.09893798828125 325.85943603515625Q328.37896728515625 238.53924560546875 391.0091247558594 196.88919067382812Q453.6392822265625 155.2391357421875 550.9393920898438 155.2391357421875Q657.4998168945312 155.2391357421875 720.4300842285156 199.4793701171875Q783.3603515625 243.7196044921875 783.3603515625 306.41986083984375Q783.3603515625 359.74005126953125 744.5702819824219 394.7301940917969Q705.7802124023438 429.7203369140625 625.840087890625 447.46038818359375L437.68017578125 490.02044677734375Q282.4403076171875 525.1204833984375 206.46038818359375 601.8804321289062Q130.48046875 678.640380859375 130.48046875 799.1602783203125Q130.48046875 898.9401245117188 186.01040649414062 973.7900695800781Q241.54034423828125 1048.6400146484375 339.00018310546875 1090.3200073242188Q436.46002197265625 1132 562.8397216796875 1132Q683.7794799804688 1132 769.7692565917969 1096.780029296875Q855.759033203125 1061.56005859375 909.3189086914062 998.9901428222656Q962.8787841796875 936.4202270507812 986.4388427734375 853.2803955078125L789.0602416992188 809.6604614257812Q767.8601684570312 868.760498046875 716.0700988769531 913.5306701660156Q664.280029296875 958.3008422851562 565.0996704101562 958.3008422851562Q473.73931884765625 958.3008422851562 412.7290954589844 917.2506408691406Q351.7188720703125 876.200439453125 351.7188720703125 812.5001831054688Q351.7188720703125 757.159912109375 392.4890441894531 722.4497985839844Q433.25921630859375 687.7396850585938 524.95947265625 666.8995971679688L704.5790405273438 626.8995971679688Q859.9989013671875 591.9795532226562 935.0688171386719 516.7495422363281Q1010.1387329101562 441.51953125 1010.1387329101562 324.89959716796875Q1010.1387329101562 222.93975830078125 951.7588500976562 144.4598388671875Q893.3789672851562 65.97991943359375 789.4691467285156 21.349945068359375Q685.559326171875 -23.280029296875 549.3395385742188 -23.280029296875Z"/><path transform="translate(219.817 0) scale(0.01611 -0.01611)" d="M549.3395385742188 -23.280029296875Q427.6798095703125 -23.280029296875 333.32000732421875 11.929901123046875Q238.960205078125 47.13983154296875 178.35031127929688 115.56973266601562Q117.74041748046875 183.9996337890625 97.92041015625 282.51953125L305.09893798828125 325.85943603515625Q328.37896728515625 238.53924560546875 391.0091247558594 196.88919067382812Q453.6392822265625 155.2391357421875 550.9393920898438 155.2391357421875Q657.4998168945312 155.2391357421875 720.4300842285156 199.4793701171875Q783.3603515625 243.7196044921875 783.3603515625 306.41986083984375Q783.3603515625 359.74005126953125 744.5702819824219 394.7301940917969Q705.7802124023438 429.7203369140625 625.840087890625 447.46038818359375L437.68017578125 490.02044677734375Q282.4403076171875 525.1204833984375 206.46038818359375 601.8804321289062Q130.48046875 678.640380859375 130.48046875 799.1602783203125Q130.48046875 898.9401245117188 186.01040649414062 973.7900695800781Q241.54034423828125 1048.6400146484375 339.00018310546875 1090.3200073242188Q436.46002197265625 1132 562.8397216796875 1132Q683.7794799804688 1132 769.7692565917969 1096.780029296875Q855.759033203125 1061.56005859375 909.3189086914062 998.9901428222656Q962.8787841796875 936.4202270507812 986.4388427734375 853.2803955078125L789.0602416992188 809.6604614257812Q767.8601684570312 868.760498046875 716.0700988769531 913.5306701660156Q664.280029296875 958.3008422851562 565.0996704101562 958.3008422851562Q473.73931884765625 958.3008422851562 412.7290954589844 917.2506408691406Q351.7188720703125 876.200439453125 351.7188720703125 812.5001831054688Q351.7188720703125 757.159912109375 392.4890441894531 722.4497985839844Q433.25921630859375 687.7396850585938 524.95947265625 666.8995971679688L704.5790405273438 626.8995971679688Q859.9989013671875 591.9795532226562 935.0688171386719 516.7495422363281Q1010.1387329101562 441.51953125 1010.1387329101562 324.89959716796875Q1010.1387329101562 222.93975830078125 951.7588500976562 144.4598388671875Q893.3789672851562 65.97991943359375 789.4691467285156 21.349945068359375Q685.559326171875 -23.280029296875 549.3395385742188 -23.280029296875Z"/><path transform="translate(237.590 0) scale(0.01611 -0.01611)" d="M528.9003295898438 -14Q415.0003662109375 -14 329.0503845214844 33.849945068359375Q243.10040283203125 81.69989013671875 195.51040649414062 175.8798828125Q147.92041015625 270.05987548828125 147.92041015625 407.6400146484375V1118H367.8787841796875V435.05950927734375Q367.8787841796875 314.33917236328125 431.198974609375 245.92898559570312Q494.5191650390625 177.518798828125 604.1394653320312 177.518798828125Q678.7396850585938 177.518798828125 737.2898864746094 210.08889770507812Q795.840087890625 242.65899658203125 829.7802124023438 305.2091979980469Q863.7203369140625 367.7593994140625 863.7203369140625 455.5596923828125V1118H1084.4987182617188V0H873.960205078125L872.520263671875 273.69989013671875H894.3603515625Q844.8802490234375 122.09967041015625 751.18017578125 54.049835205078125Q657.4801025390625 -14 528.9003295898438 -14Z"/><path transform="translate(257.442 0) scale(0.01611 -0.01611)" d="M629.7999267578125 -23.280029296875Q464.74005126953125 -23.280029296875 345.08013916015625 48.089996337890625Q225.42022705078125 119.46002197265625 160.93026733398438 248.46002197265625Q96.4403076171875 377.46002197265625 96.4403076171875 551.0799560546875Q96.4403076171875 723.2599487304688 159.79025268554688 853.9899597167969Q223.14019775390625 984.719970703125 339.0700988769531 1058.3599853515625Q455 1132 610.7798461914062 1132Q706.6195678710938 1132 795.9994506835938 1100.7000732421875Q885.3793334960938 1069.400146484375 956.3293151855469 1002.2802124023438Q1027.279296875 935.1602783203125 1068.7393188476562 828.3402709960938Q1110.1993408203125 721.520263671875 1110.1993408203125 570.3001098632812V492.240234375H218.80029296875V656.479736328125H996.8200073242188L894.1007690429688 602.2796630859375Q894.1007690429688 704.719970703125 862.2106628417969 783.2002563476562Q830.320556640625 861.6805419921875 767.5403442382812 905.8607177734375Q704.7601318359375 950.0408935546875 611.4998168945312 950.0408935546875Q518.239501953125 950.0408935546875 452.17926025390625 905.0407104492188Q386.1190185546875 860.04052734375 351.35888671875 786.4802856445312Q316.5987548828125 712.9200439453125 316.5987548828125 626.0598754882812V514.4403076171875Q316.5987548828125 399.43994140625 356.0888977050781 319.7796630859375Q395.57904052734375 240.119384765625 466.8692932128906 199.39923095703125Q538.1595458984375 158.6790771484375 632.0598754882812 158.6790771484375Q693.56005859375 158.6790771484375 743.8702087402344 176.32913208007812Q794.1803588867188 193.97918701171875 830.48046875 229.4193115234375Q866.7805786132812 264.85943603515625 886.16064453125 317.17962646484375L1092.559326171875 268.45965576171875Q1066.1993408203125 181.57977294921875 1002.5794067382812 115.86984252929688Q938.95947265625 50.159912109375 844.3995971679688 13.43994140625Q749.8397216796875 -23.280029296875 629.7999267578125 -23.280029296875Z"/><path transform="translate(276.826 0) scale(0.01611 -0.01611)" d="M125.1201171875 -371.05950927734375 213.1201171875 213.759765625H450.4388427734375L285.0792236328125 -371.05950927734375Z"/><path transform="translate(295.630 0) scale(0.01611 -0.01611)" d="M549.3395385742188 -23.280029296875Q427.6798095703125 -23.280029296875 333.32000732421875 11.929901123046875Q238.960205078125 47.13983154296875 178.35031127929688 115.56973266601562Q117.74041748046875 183.9996337890625 97.92041015625 282.51953125L305.09893798828125 325.85943603515625Q328.37896728515625 238.53924560546875 391.0091247558594 196.88919067382812Q453.6392822265625 155.2391357421875 550.9393920898438 155.2391357421875Q657.4998168945312 155.2391357421875 720.4300842285156 199.4793701171875Q783.3603515625 243.7196044921875 783.3603515625 306.41986083984375Q783.3603515625 359.74005126953125 744.5702819824219 394.7301940917969Q705.7802124023438 429.7203369140625 625.840087890625 447.46038818359375L437.68017578125 490.02044677734375Q282.4403076171875 525.1204833984375 206.46038818359375 601.8804321289062Q130.48046875 678.640380859375 130.48046875 799.1602783203125Q130.48046875 898.9401245117188 186.01040649414062 973.7900695800781Q241.54034423828125 1048.6400146484375 339.00018310546875 1090.3200073242188Q436.46002197265625 1132 562.8397216796875 1132Q683.7794799804688 1132 769.7692565917969 1096.780029296875Q855.759033203125 1061.56005859375 909.3189086914062 998.9901428222656Q962.8787841796875 936.4202270507812 986.4388427734375 853.2803955078125L789.0602416992188 809.6604614257812Q767.8601684570312 868.760498046875 716.0700988769531 913.5306701660156Q664.280029296875 958.3008422851562 565.0996704101562 958.3008422851562Q473.73931884765625 958.3008422851562 412.7290954589844 917.2506408691406Q351.7188720703125 876.200439453125 351.7188720703125 812.5001831054688Q351.7188720703125 757.159912109375 392.4890441894531 722.4497985839844Q433.25921630859375 687.7396850585938 524.95947265625 666.8995971679688L704.5790405273438 626.8995971679688Q859.9989013671875 591.9795532226562 935.0688171386719 516.7495422363281Q1010.1387329101562 441.51953125 1010.1387329101562 324.89959716796875Q1010.1387329101562 222.93975830078125 951.7588500976562 144.4598388671875Q893.3789672851562 65.97991943359375 789.4691467285156 21.349945068359375Q685.559326171875 -23.280029296875 549.3395385742188 -23.280029296875Z"/><path transform="translate(313.403 0) scale(0.01611 -0.01611)" d="M460.74041748046875 -24.56005859375Q354.5604248046875 -24.56005859375 268.7803955078125 14.629974365234375Q183.0003662109375 53.82000732421875 132.90032958984375 129.9200439453125Q82.80029296875 206.02008056640625 82.80029296875 316.2000732421875Q82.80029296875 411.4801025390625 119.54034423828125 472.38006591796875Q156.2803955078125 533.280029296875 218.43045043945312 569.0399780273438Q280.58050537109375 604.7999267578125 357.1305236816406 622.7898864746094Q433.6805419921875 640.7798461914062 513.3004760742188 650.0598754882812Q612.2205200195312 661.9799194335938 674.0505676269531 669.5198974609375Q735.880615234375 677.0598754882812 765.4806518554688 694.5098571777344Q795.0806884765625 711.9598388671875 795.0806884765625 751.3399047851562V756.9799194335938Q795.0806884765625 819.6002197265625 770.9706115722656 862.9704284667969Q746.8605346679688 906.3406372070312 699.1803588867188 929.5507507324219Q651.5001831054688 952.7608642578125 580.5198974609375 952.7608642578125Q508.07958984375 952.7608642578125 455.7593994140625 930.28076171875Q403.439208984375 907.8006591796875 370.63909912109375 873.0905456542969Q337.8389892578125 838.3804321289062 321.81890869140625 800.2803955078125L114.80029296875 853.5005493164062Q152.94049072265625 954.0606079101562 223.9605712890625 1015.0704650878906Q294.98065185546875 1076.080322265625 386.8504943847656 1104.0401611328125Q478.7203369140625 1132 577.4998168945312 1132Q644.83935546875 1132 720.8391723632812 1115.8901062011719Q796.8389892578125 1099.7802124023438 863.698974609375 1057.9802856445312Q930.5589599609375 1016.1803588867188 972.7990112304688 939.8402709960938Q1015.0390625 863.5001831054688 1015.0390625 742.2197875976562V0H802.2205200195312V153.0799560546875H790.9404907226562Q769.2406005859375 109.7601318359375 726.2506408691406 68.80010986328125Q683.2606811523438 27.840087890625 617.5206298828125 1.6400146484375Q551.7805786132812 -24.56005859375 460.74041748046875 -24.56005859375ZM509.5596923828125 151.53924560546875Q599.840087890625 151.53924560546875 663.7102966308594 186.93939208984375Q727.5805053710938 222.33953857421875 761.6905822753906 279.979736328125Q795.8006591796875 337.61993408203125 795.8006591796875 402.56005859375V546.2205200195312Q783.9006958007812 534.48046875 750.320556640625 524.7904357910156Q716.7404174804688 515.1004028320312 674.1002197265625 507.640380859375Q631.4600219726562 500.18035888671875 591.099853515625 494.9503479003906Q550.7396850585938 489.7203369140625 525.0996704101562 486.54034423828125Q463.33953857421875 478.7203369140625 411.6993408203125 459.76031494140625Q360.05914306640625 440.80029296875 329.65899658203125 405.8201904296875Q299.25885009765625 370.840087890625 299.25885009765625 313.13983154296875Q299.25885009765625 259.9996337890625 326.5589599609375 224.14950561523438Q353.85906982421875 188.29937744140625 401.17926025390625 169.9193115234375Q448.49945068359375 151.53924560546875 509.5596923828125 151.53924560546875Z"/><path transform="translate(332.143 0) scale(0.01611 -0.01611)" d="M701.9390258789062 1118V939.1610107421875H20V1118ZM232.4403076171875 0V1245.9408569335938Q232.4403076171875 1350.320556640625 278.5702819824219 1420.0003662109375Q324.70025634765625 1489.68017578125 400.7601318359375 1524.840087890625Q476.82000732421875 1560 565.19970703125 1560Q631.5396118164062 1560 679.0293884277344 1549.2300109863281Q726.5191650390625 1538.4600219726562 749.0390625 1529.6400146484375L697.59912109375 1351.52099609375Q682.1591796875 1356.7009887695312 658.5792236328125 1362.3410034179688Q634.999267578125 1367.9810180664062 599.6991577148438 1367.9810180664062Q521.5589599609375 1367.9810180664062 486.798828125 1328.8108825683594Q452.0386962890625 1289.6407470703125 452.0386962890625 1216.0204467773438V0Z"/><path transform="translate(344.663 0) scale(0.01611 -0.01611)" d="M629.7999267578125 -23.280029296875Q464.74005126953125 -23.280029296875 345.08013916015625 48.089996337890625Q225.42022705078125 119.46002197265625 160.93026733398438 248.46002197265625Q96.4403076171875 377.46002197265625 96.4403076171875 551.0799560546875Q96.4403076171875 723.2599487304688 159.79025268554688 853.9899597167969Q223.14019775390625 984.719970703125 339.0700988769531 1058.3599853515625Q455 1132 610.7798461914062 1132Q706.6195678710938 1132 795.9994506835938 1100.7000732421875Q885.3793334960938 1069.400146484375 956.3293151855469 1002.2802124023438Q1027.279296875 935.1602783203125 1068.7393188476562 828.3402709960938Q1110.1993408203125 721.520263671875 1110.1993408203125 570.3001098632812V492.240234375H218.80029296875V656.479736328125H996.8200073242188L894.1007690429688 602.2796630859375Q894.1007690429688 704.719970703125 862.2106628417969 783.2002563476562Q830.320556640625 861.6805419921875 767.5403442382812 905.8607177734375Q704.7601318359375 950.0408935546875 611.4998168945312 950.0408935546875Q518.239501953125 950.0408935546875 452.17926025390625 905.0407104492188Q386.1190185546875 860.04052734375 351.35888671875 786.4802856445312Q316.5987548828125 712.9200439453125 316.5987548828125 626.0598754882812V514.4403076171875Q316.5987548828125 399.43994140625 356.0888977050781 319.7796630859375Q395.57904052734375 240.119384765625 466.8692932128906 199.39923095703125Q538.1595458984375 158.6790771484375 632.0598754882812 158.6790771484375Q693.56005859375 158.6790771484375 743.8702087402344 176.32913208007812Q794.1803588867188 193.97918701171875 830.48046875 229.4193115234375Q866.7805786132812 264.85943603515625 886.16064453125 317.17962646484375L1092.559326171875 268.45965576171875Q1066.1993408203125 181.57977294921875 1002.5794067382812 115.86984252929688Q938.95947265625 50.159912109375 844.3995971679688 13.43994140625Q749.8397216796875 -23.280029296875 629.7999267578125 -23.280029296875Z"/><path transform="translate(364.047 0) scale(0.01611 -0.01611)" d="M367.8787841796875 1490V0H147.92041015625V1490Z"/><path transform="translate(372.362 0) scale(0.01611 -0.01611)" d="M133.34027099609375 -401.94012451171875 186.89996337890625 -222.54107666015625 211.8397216796875 -229.1610107421875Q268.81964111328125 -243.70098876953125 314.359619140625 -237.02099609375Q359.89959716796875 -230.34100341796875 393.37969970703125 -194.680908203125Q426.85980224609375 -159.02081298828125 446.840087890625 -87.1204833984375L471.10040283203125 -5.10003662109375L46.4403076171875 1118H283.93865966796875L505.1993408203125 482.53887939453125Q542.119384765625 376.5589599609375 566.5894470214844 271.9490661621094Q591.0595092773438 167.33917236328125 619.51953125 63.41949462890625H552.2595825195312Q580.7196044921875 167.33917236328125 607.3096008300781 272.5390625Q633.8995971679688 377.73895263671875 670.5396118164062 482.53887939453125L896.1401977539062 1118H1131.7385864257812L646.1383666992188 -155.30047607421875Q612.1383666992188 -244.66046142578125 562.7484436035156 -305.04034423828125Q513.3585205078125 -365.42022705078125 445.0487365722656 -395.7101135253906Q376.73895263671875 -426 286.57940673828125 -426Q234.799560546875 -426 194.039794921875 -418.46002197265625Q153.280029296875 -410.9200439453125 133.34027099609375 -401.94012451171875Z"/><path transform="translate(400.141 0) scale(0.01611 -0.01611)" d="M460.74041748046875 -24.56005859375Q354.5604248046875 -24.56005859375 268.7803955078125 14.629974365234375Q183.0003662109375 53.82000732421875 132.90032958984375 129.9200439453125Q82.80029296875 206.02008056640625 82.80029296875 316.2000732421875Q82.80029296875 411.4801025390625 119.54034423828125 472.38006591796875Q156.2803955078125 533.280029296875 218.43045043945312 569.0399780273438Q280.58050537109375 604.7999267578125 357.1305236816406 622.7898864746094Q433.6805419921875 640.7798461914062 513.3004760742188 650.0598754882812Q612.2205200195312 661.9799194335938 674.0505676269531 669.5198974609375Q735.880615234375 677.0598754882812 765.4806518554688 694.5098571777344Q795.0806884765625 711.9598388671875 795.0806884765625 751.3399047851562V756.9799194335938Q795.0806884765625 819.6002197265625 770.9706115722656 862.9704284667969Q746.8605346679688 906.3406372070312 699.1803588867188 929.5507507324219Q651.5001831054688 952.7608642578125 580.5198974609375 952.7608642578125Q508.07958984375 952.7608642578125 455.7593994140625 930.28076171875Q403.439208984375 907.8006591796875 370.63909912109375 873.0905456542969Q337.8389892578125 838.3804321289062 321.81890869140625 800.2803955078125L114.80029296875 853.5005493164062Q152.94049072265625 954.0606079101562 223.9605712890625 1015.0704650878906Q294.98065185546875 1076.080322265625 386.8504943847656 1104.0401611328125Q478.7203369140625 1132 577.4998168945312 1132Q644.83935546875 1132 720.8391723632812 1115.8901062011719Q796.8389892578125 1099.7802124023438 863.698974609375 1057.9802856445312Q930.5589599609375 1016.1803588867188 972.7990112304688 939.8402709960938Q1015.0390625 863.5001831054688 1015.0390625 742.2197875976562V0H802.2205200195312V153.0799560546875H790.9404907226562Q769.2406005859375 109.7601318359375 726.2506408691406 68.80010986328125Q683.2606811523438 27.840087890625 617.5206298828125 1.6400146484375Q551.7805786132812 -24.56005859375 460.74041748046875 -24.56005859375ZM509.5596923828125 151.53924560546875Q599.840087890625 151.53924560546875 663.7102966308594 186.93939208984375Q727.5805053710938 222.33953857421875 761.6905822753906 279.979736328125Q795.8006591796875 337.61993408203125 795.8006591796875 402.56005859375V546.2205200195312Q783.9006958007812 534.48046875 750.320556640625 524.7904357910156Q716.7404174804688 515.1004028320312 674.1002197265625 507.640380859375Q631.4600219726562 500.18035888671875 591.099853515625 494.9503479003906Q550.7396850585938 489.7203369140625 525.0996704101562 486.54034423828125Q463.33953857421875 478.7203369140625 411.6993408203125 459.76031494140625Q360.05914306640625 440.80029296875 329.65899658203125 405.8201904296875Q299.25885009765625 370.840087890625 299.25885009765625 313.13983154296875Q299.25885009765625 259.9996337890625 326.5589599609375 224.14950561523438Q353.85906982421875 188.29937744140625 401.17926025390625 169.9193115234375Q448.49945068359375 151.53924560546875 509.5596923828125 151.53924560546875Z"/><path transform="translate(418.881 0) scale(0.01611 -0.01611)" d="M549.3395385742188 -23.280029296875Q427.6798095703125 -23.280029296875 333.32000732421875 11.929901123046875Q238.960205078125 47.13983154296875 178.35031127929688 115.56973266601562Q117.74041748046875 183.9996337890625 97.92041015625 282.51953125L305.09893798828125 325.85943603515625Q328.37896728515625 238.53924560546875 391.0091247558594 196.88919067382812Q453.6392822265625 155.2391357421875 550.9393920898438 155.2391357421875Q657.4998168945312 155.2391357421875 720.4300842285156 199.4793701171875Q783.3603515625 243.7196044921875 783.3603515625 306.41986083984375Q783.3603515625 359.74005126953125 744.5702819824219 394.7301940917969Q705.7802124023438 429.7203369140625 625.840087890625 447.46038818359375L437.68017578125 490.02044677734375Q282.4403076171875 525.1204833984375 206.46038818359375 601.8804321289062Q130.48046875 678.640380859375 130.48046875 799.1602783203125Q130.48046875 898.9401245117188 186.01040649414062 973.7900695800781Q241.54034423828125 1048.6400146484375 339.00018310546875 1090.3200073242188Q436.46002197265625 1132 562.8397216796875 1132Q683.7794799804688 1132 769.7692565917969 1096.780029296875Q855.759033203125 1061.56005859375 909.3189086914062 998.9901428222656Q962.8787841796875 936.4202270507812 986.4388427734375 853.2803955078125L789.0602416992188 809.6604614257812Q767.8601684570312 868.760498046875 716.0700988769531 913.5306701660156Q664.280029296875 958.3008422851562 565.0996704101562 958.3008422851562Q473.73931884765625 958.3008422851562 412.7290954589844 917.2506408691406Q351.7188720703125 876.200439453125 351.7188720703125 812.5001831054688Q351.7188720703125 757.159912109375 392.4890441894531 722.4497985839844Q433.25921630859375 687.7396850585938 524.95947265625 666.8995971679688L704.5790405273438 626.8995971679688Q859.9989013671875 591.9795532226562 935.0688171386719 516.7495422363281Q1010.1387329101562 441.51953125 1010.1387329101562 324.89959716796875Q1010.1387329101562 222.93975830078125 951.7588500976562 144.4598388671875Q893.3789672851562 65.97991943359375 789.4691467285156 21.349945068359375Q685.559326171875 -23.280029296875 549.3395385742188 -23.280029296875Z"/><path transform="translate(436.654 0) scale(0.01611 -0.01611)" d="M367.8787841796875 662.4403076171875V0H147.92041015625V1490H366.078857421875V844.3001098632812H337.23876953125Q385.89886474609375 994.2603149414062 478.7789306640625 1063.1301574707031Q571.6589965820312 1132 703.518798828125 1132Q817.5987548828125 1132 903.458740234375 1084.1500549316406Q989.3187255859375 1036.3001098632812 1036.9087219238281 942.5301208496094Q1084.4987182617188 848.7601318359375 1084.4987182617188 710.3599853515625V0H863.7203369140625V682.9404907226562Q863.7203369140625 803.6608276367188 800.8101501464844 872.0710144042969Q737.8999633789062 940.481201171875 628.2796630859375 940.481201171875Q553.8594360351562 940.481201171875 494.8092346191406 907.9111022949219Q435.759033203125 875.3410034179688 401.81890869140625 813.2908020019531Q367.8787841796875 751.2406005859375 367.8787841796875 662.4403076171875Z"/><path transform="translate(456.505 0) scale(0.01611 -0.01611)" d="M618.039794921875 -23.280029296875Q460.6400146484375 -23.280029296875 343.3501281738281 48.809967041015625Q226.06024169921875 120.89996337890625 161.25027465820312 250.80996704101562Q96.4403076171875 380.719970703125 96.4403076171875 552.719970703125Q96.4403076171875 727.1799926757812 161.25027465820312 857.5Q226.06024169921875 987.8200073242188 343.3501281738281 1059.9100036621094Q460.6400146484375 1132 618.039794921875 1132Q776.2595825195312 1132 893.7794799804688 1059.9100036621094Q1011.2993774414062 987.8200073242188 1076.1093444824219 857.5Q1140.9193115234375 727.1799926757812 1140.9193115234375 552.719970703125Q1140.9193115234375 380.719970703125 1076.1093444824219 250.80996704101562Q1011.2993774414062 120.89996337890625 893.7794799804688 48.809967041015625Q776.2595825195312 -23.280029296875 618.039794921875 -23.280029296875ZM618.039794921875 162.73895263671875Q720.0602416992188 162.73895263671875 786.6705017089844 216.2391357421875Q853.28076171875 269.73931884765625 885.5808715820312 358.47955322265625Q917.8809814453125 447.21978759765625 917.8809814453125 553.0799560546875Q917.8809814453125 659.9401245117188 885.5808715820312 749.2303771972656Q853.28076171875 838.5206298828125 786.6705017089844 892.2508239746094Q720.0602416992188 945.9810180664062 618.039794921875 945.9810180664062Q516.6593627929688 945.9810180664062 450.77911376953125 892.2508239746094Q384.89886474609375 838.5206298828125 352.5987548828125 749.640380859375Q320.29864501953125 660.7601318359375 320.29864501953125 553.0799560546875Q320.29864501953125 447.21978759765625 352.5987548828125 358.47955322265625Q384.89886474609375 269.73931884765625 450.77911376953125 216.2391357421875Q516.6593627929688 162.73895263671875 618.039794921875 162.73895263671875Z"/><path transform="translate(476.438 0) scale(0.01611 -0.01611)" d="M147.92041015625 0V1118H360.798828125V938.4403076171875H372.798828125Q403.61883544921875 1029.56005859375 480.7789306640625 1081.6000366210938Q557.9390258789062 1133.6400146484375 655.9591064453125 1133.6400146484375Q677.0390625 1133.6400146484375 704.2690734863281 1132.1000366210938Q731.4990844726562 1130.56005859375 748.9390258789062 1128.3001098632812V918.3212890625Q736.9791870117188 921.9412231445312 702.9092712402344 926.0312194824219Q668.83935546875 930.1212158203125 633.7393188476562 930.1212158203125Q557.5191650390625 930.1212158203125 496.9890441894531 897.8811645507812Q436.45892333984375 865.64111328125 402.1688537597656 809.1210327148438Q367.8787841796875 752.6009521484375 367.8787841796875 678.7608642578125V0Z"/><path transform="translate(489.199 0) scale(0.01611 -0.01611)" d="M629.7999267578125 -23.280029296875Q464.74005126953125 -23.280029296875 345.08013916015625 48.089996337890625Q225.42022705078125 119.46002197265625 160.93026733398438 248.46002197265625Q96.4403076171875 377.46002197265625 96.4403076171875 551.0799560546875Q96.4403076171875 723.2599487304688 159.79025268554688 853.9899597167969Q223.14019775390625 984.719970703125 339.0700988769531 1058.3599853515625Q455 1132 610.7798461914062 1132Q706.6195678710938 1132 795.9994506835938 1100.7000732421875Q885.3793334960938 1069.400146484375 956.3293151855469 1002.2802124023438Q1027.279296875 935.1602783203125 1068.7393188476562 828.3402709960938Q1110.1993408203125 721.520263671875 1110.1993408203125 570.3001098632812V492.240234375H218.80029296875V656.479736328125H996.8200073242188L894.1007690429688 602.2796630859375Q894.1007690429688 704.719970703125 862.2106628417969 783.2002563476562Q830.320556640625 861.6805419921875 767.5403442382812 905.8607177734375Q704.7601318359375 950.0408935546875 611.4998168945312 950.0408935546875Q518.239501953125 950.0408935546875 452.17926025390625 905.0407104492188Q386.1190185546875 860.04052734375 351.35888671875 786.4802856445312Q316.5987548828125 712.9200439453125 316.5987548828125 626.0598754882812V514.4403076171875Q316.5987548828125 399.43994140625 356.0888977050781 319.7796630859375Q395.57904052734375 240.119384765625 466.8692932128906 199.39923095703125Q538.1595458984375 158.6790771484375 632.0598754882812 158.6790771484375Q693.56005859375 158.6790771484375 743.8702087402344 176.32913208007812Q794.1803588867188 193.97918701171875 830.48046875 229.4193115234375Q866.7805786132812 264.85943603515625 886.16064453125 317.17962646484375L1092.559326171875 268.45965576171875Q1066.1993408203125 181.57977294921875 1002.5794067382812 115.86984252929688Q938.95947265625 50.159912109375 844.3995971679688 13.43994140625Q749.8397216796875 -23.280029296875 629.7999267578125 -23.280029296875Z"/><path transform="translate(508.583 0) scale(0.01611 -0.01611)" d="M310.65936279296875 -14.97991943359375Q248.89959716796875 -14.97991943359375 205.88973999023438 27.849945068359375Q162.8798828125 70.6798095703125 162.8798828125 132.25958251953125Q162.8798828125 193.83935546875 205.88973999023438 236.66921997070312Q248.89959716796875 279.49908447265625 310.65936279296875 279.49908447265625Q372.41912841796875 279.49908447265625 415.4289855957031 236.66921997070312Q458.4388427734375 193.83935546875 458.4388427734375 132.25958251953125Q458.4388427734375 70.6798095703125 415.4289855957031 27.849945068359375Q372.41912841796875 -14.97991943359375 310.65936279296875 -14.97991943359375Z"/></g><g transform="translate(319.00 248.00)" fill="#2D8CFF"><path transform="translate(0.000 0) scale(0.01025 -0.01025)" d="M149.76123046875 0V1490H720.239501953125Q881.279296875 1490 987.9990844726562 1439.1998901367188Q1094.7188720703125 1388.3997802734375 1147.6387329101562 1301.0596923828125Q1200.55859375 1213.7196044921875 1200.55859375 1103.2796630859375Q1200.55859375 1012.3194580078125 1165.838623046875 947.8395385742188Q1131.11865234375 883.359619140625 1072.3787841796875 843.2997436523438Q1013.638916015625 803.2398681640625 940.71923828125 785.599853515625V770.8798828125Q1020.078857421875 767.2398681640625 1092.8187255859375 723.0598754882812Q1165.55859375 678.8798828125 1212.05859375 598.7798461914062Q1258.55859375 518.6798095703125 1258.55859375 405.9996337890625Q1258.55859375 290.3997802734375 1202.9187622070312 198.41986083984375Q1147.2789306640625 106.43994140625 1034.759033203125 53.219970703125Q922.2391357421875 0 751.2789306640625 0ZM416.798095703125 223.437744140625H709.200439453125Q856.9215087890625 223.437744140625 922.5018310546875 280.358154296875Q988.0821533203125 337.278564453125 988.0821533203125 425.9989013671875Q988.0821533203125 493.0792236328125 955.1219482421875 546.5396118164062Q922.1617431640625 600 861.661376953125 631.1602783203125Q801.1610107421875 662.320556640625 717.760498046875 662.320556640625H416.798095703125ZM416.798095703125 854.71923828125H686.48046875Q756.7608642578125 854.71923828125 812.9412231445312 880.8194580078125Q869.12158203125 906.919677734375 901.7218017578125 955.06005859375Q934.322021484375 1003.200439453125 934.322021484375 1069.0408935546875Q934.322021484375 1155.601318359375 873.3017578125 1211.8017578125Q812.281494140625 1268.002197265625 692.48046875 1268.002197265625H416.798095703125Z"/><path transform="translate(17.043 0) scale(0.01025 -0.01025)" d="M600.3599853515625 0V576.88134765625L49.840087890625 1490H361.6363525390625L627.8375244140625 1020.1595458984375Q670.27783203125 946.3592529296875 703.1980590820312 876.09912109375Q736.1182861328125 805.8389892578125 770.99853515625 704.6385498046875H701.1182861328125Q735.278564453125 807.1190185546875 767.798828125 878.0191650390625Q800.319091796875 948.9193115234375 840.4793701171875 1020.1595458984375L1101.000732421875 1490H1411.43701171875L866.6768798828125 576.88134765625V0Z"/><path transform="translate(43.715 0) scale(0.01025 -0.01025)" d="M654.9591064453125 -20Q493.51953125 -20 368.83990478515625 34.39996337890625Q244.1602783203125 88.7999267578125 173.72052001953125 183.5198974609375Q103.28076171875 278.2398681640625 103.28076171875 398.8798828125Q103.28076171875 492.159912109375 144.16064453125 571.219970703125Q185.04052734375 650.280029296875 255.54034423828125 703.2000732421875Q326.0401611328125 756.1201171875 414.0799560546875 771.1201171875V779.840087890625Q298.6002197265625 806.0401611328125 227.94049072265625 898.5001831054688Q157.28076171875 990.960205078125 157.28076171875 1111.1201171875Q157.28076171875 1226.2000732421875 221.6805419921875 1316.2400512695312Q286.080322265625 1406.280029296875 398.43994140625 1458.1400146484375Q510.799560546875 1510 654.9591064453125 1510Q798.1986083984375 1510 910.7382202148438 1458.1400146484375Q1023.27783203125 1406.280029296875 1087.9976196289062 1316.06005859375Q1152.7174072265625 1225.840087890625 1152.7174072265625 1111.1201171875Q1152.7174072265625 990.6002197265625 1081.377685546875 898.3201904296875Q1010.0379638671875 806.0401611328125 897.1982421875 779.840087890625V771.1201171875Q983.5980224609375 756.1201171875 1054.0978393554688 703.2000732421875Q1124.59765625 650.280029296875 1166.2975463867188 571.219970703125Q1207.9974365234375 492.159912109375 1207.9974365234375 398.8798828125Q1207.9974365234375 278.2398681640625 1136.9176635742188 183.5198974609375Q1065.837890625 88.7999267578125 940.978271484375 34.39996337890625Q816.11865234375 -20 654.9591064453125 -20ZM654.9591064453125 185.6783447265625Q739.19970703125 185.6783447265625 801.3001098632812 214.9384765625Q863.4005126953125 244.1986083984375 897.8607177734375 296.578857421875Q932.3209228515625 348.9591064453125 932.3209228515625 418.239501953125Q932.3209228515625 489.719970703125 896.2606811523438 544.580322265625Q860.200439453125 599.440673828125 797.4600219726562 631.0808715820312Q734.7196044921875 662.7210693359375 654.9591064453125 662.7210693359375Q574.6385498046875 662.7210693359375 511.89813232421875 631.2608642578125Q449.15771484375 599.8006591796875 413.09747314453125 544.9403076171875Q377.0372314453125 490.0799560546875 377.0372314453125 418.239501953125Q377.0372314453125 348.9591064453125 411.17742919921875 296.75885009765625Q445.317626953125 244.55859375 508.05804443359375 215.11846923828125Q570.7984619140625 185.6783447265625 654.9591064453125 185.6783447265625ZM654.9591064453125 865.279296875Q723.8795166015625 865.279296875 777.1398315429688 892.9994506835938Q830.400146484375 920.7196044921875 861.4003295898438 970.5198974609375Q892.4005126953125 1020.3201904296875 892.4005126953125 1084.880615234375Q892.4005126953125 1149.801025390625 862.3603515625 1197.9613037109375Q832.3201904296875 1246.12158203125 778.7398681640625 1273.021728515625Q725.1595458984375 1299.921875 654.9591064453125 1299.921875Q584.4786376953125 1299.921875 530.8983154296875 1273.021728515625Q477.3179931640625 1246.12158203125 447.45782470703125 1197.9613037109375Q417.59765625 1149.801025390625 417.59765625 1084.880615234375Q417.59765625 1020.3201904296875 447.77783203125 970.6998901367188Q477.9580078125 921.07958984375 531.8583374023438 893.179443359375Q585.7586669921875 865.279296875 654.9591064453125 865.279296875Z"/><path transform="translate(68.849 0) scale(0.01025 -0.01025)" d="M451.8802490234375 0 49.840087890625 1490H336.71630859375L530.5980224609375 696.955078125Q551.0379638671875 610.99560546875 568.39794921875 516.056396484375Q585.7579345703125 421.1171875 602.2979125976562 325.07794189453125Q618.837890625 229.0386962890625 634.27783203125 136.9591064453125H590.7586669921875Q607.9185791015625 229.0386962890625 624.99853515625 325.07794189453125Q642.0784912109375 421.1171875 660.9784545898438 516.056396484375Q679.87841796875 610.99560546875 701.038330078125 696.955078125L902.7999267578125 1490H1186.4771728515625L1386.958740234375 696.955078125Q1408.7586669921875 610.99560546875 1427.338623046875 516.056396484375Q1445.9185791015625 421.1171875 1463.6385498046875 325.07794189453125Q1481.3585205078125 229.0386962890625 1498.5184326171875 136.9591064453125H1452.71923828125Q1469.1591796875 229.0386962890625 1485.5191650390625 325.07794189453125Q1501.879150390625 421.1171875 1520.0591430664062 516.056396484375Q1538.2391357421875 610.99560546875 1557.6790771484375 696.955078125L1751.28076171875 1490H2039.43701171875L1636.1168212890625 0H1330.1602783203125L1113.0386962890625 822.6849365234375Q1083.35888671875 938.083984375 1060.5388793945312 1073.0429077148438Q1037.7188720703125 1208.0018310546875 1012.1190185546875 1359.3614501953125H1075.8780517578125Q1048.1182861328125 1213.1219482421875 1028.0182495117188 1080.4430541992188Q1007.918212890625 947.76416015625 975.318359375 822.6849365234375L758.476806640625 0Z"/><path transform="translate(93.469 0) scale(0.01025 -0.01025)" d="M149.76123046875 0V1490H1117.518798828125V1265.122314453125H416.798095703125V863.35888671875H1065.9989013671875V641.361083984375H416.798095703125V224.877685546875H1121.8389892578125V0Z"/><path transform="translate(109.384 0) scale(0.01025 -0.01025)" d="M673.1993408203125 -23.1201171875Q500.31982421875 -23.1201171875 372.460205078125 30.85980224609375Q244.6005859375 84.8397216796875 172.9207763671875 187.87933349609375Q101.240966796875 290.9189453125 95.120849609375 438.238037109375H358.1580810546875Q364.7181396484375 359.997802734375 407.05841064453125 308.19769287109375Q449.398681640625 256.3975830078125 518.3389892578125 230.79754638671875Q587.279296875 205.197509765625 671.0394287109375 205.197509765625Q759.0799560546875 205.197509765625 826.4404907226562 232.0777587890625Q893.801025390625 258.9580078125 931.9813842773438 307.61846923828125Q970.1617431640625 356.2789306640625 970.1617431640625 420.1595458984375Q970.1617431640625 478.4801025390625 936.50146484375 516.4603881835938Q902.8411865234375 554.440673828125 842.3209228515625 580.560791015625Q781.8006591796875 606.680908203125 700.720703125 626.8809814453125L531.520263671875 671.041259765625Q345.4005126953125 718.8013916015625 240.54071044921875 816.1412963867188Q135.680908203125 913.481201171875 135.680908203125 1071.2008056640625Q135.680908203125 1202.9605712890625 206.9207763671875 1301.7803955078125Q278.16064453125 1400.6002197265625 401.18035888671875 1455.3001098632812Q524.2000732421875 1510 680.07958984375 1510Q839.319091796875 1510 958.9788208007812 1454.9401245117188Q1078.6385498046875 1399.8802490234375 1146.2984619140625 1303.1805419921875Q1213.9583740234375 1206.4808349609375 1216.87841796875 1081.601318359375H958.161376953125Q948.041259765625 1177.641845703125 872.3406372070312 1230.3021240234375Q796.6400146484375 1282.96240234375 676.239501953125 1282.96240234375Q592.47900390625 1282.96240234375 531.6785278320312 1257.5821533203125Q470.8780517578125 1232.201904296875 438.437744140625 1187.9614868164062Q405.9974365234375 1143.7210693359375 405.9974365234375 1087.04052734375Q405.9974365234375 1024.5198974609375 444.4178466796875 984.57958984375Q482.8382568359375 944.6392822265625 541.4185791015625 920.6591796875Q599.9989013671875 896.6790771484375 659.7586669921875 881.6790771484375L799.0390625 846.078857421875Q881.7181396484375 826.47900390625 959.9779052734375 793.0792236328125Q1038.2376708984375 759.679443359375 1100.8178100585938 709.2196044921875Q1163.39794921875 658.759765625 1200.13818359375 587.0797729492188Q1236.87841796875 515.3997802734375 1236.87841796875 418.239501953125Q1236.87841796875 287.2398681640625 1170.1385498046875 187.61993408203125Q1103.398681640625 88 977.35888671875 32.43994140625Q851.319091796875 -23.1201171875 673.1993408203125 -23.1201171875Z"/><path transform="translate(126.242 0) scale(0.01025 -0.01025)" d="M82.880615234375 1265.122314453125V1490H1269.358154296875V1265.122314453125H810.27783203125V0H543.240966796875V1265.122314453125Z"/><path transform="translate(151.796 0) scale(0.01025 -0.01025)" d="M416.798095703125 1490V0H149.76123046875V1490Z"/><path transform="translate(160.810 0) scale(0.01025 -0.01025)" d="M82.880615234375 1265.122314453125V1490H1269.358154296875V1265.122314453125H810.27783203125V0H543.240966796875V1265.122314453125Z"/><path transform="translate(177.874 0) scale(0.01025 -0.01025)" d="M122.240234375 -383.1190185546875 210.240234375 219.51953125H478.877685546875L304.158447265625 -383.1190185546875Z"/><path transform="translate(196.260 0) scale(0.01025 -0.01025)" d="M149.76123046875 0V1490H416.798095703125V224.877685546875H1075.119384765625V0Z"/><path transform="translate(211.334 0) scale(0.01025 -0.01025)" d="M149.76123046875 0V1490H416.798095703125V224.877685546875H1075.119384765625V0Z"/><path transform="translate(226.408 0) scale(0.01025 -0.01025)" d="M784.7999267578125 -20Q589.1201171875 -20 434.9403076171875 70.88006591796875Q280.760498046875 161.7601318359375 192.0206298828125 332.900146484375Q103.28076171875 504.0401611328125 103.28076171875 744Q103.28076171875 985.31982421875 192.56060791015625 1156.6398315429688Q281.8404541015625 1327.9598388671875 436.20025634765625 1418.9799194335938Q590.56005859375 1510 784.7999267578125 1510Q907.1595458984375 1510 1013.779296875 1475.3800659179688Q1120.3990478515625 1440.7601318359375 1203.638916015625 1374.2002563476562Q1286.8787841796875 1307.640380859375 1340.9187622070312 1211.9205932617188Q1394.958740234375 1116.2008056640625 1412.798828125 994.0010986328125H1143.60205078125Q1131.201904296875 1060.5615234375 1099.5416259765625 1111.7218017578125Q1067.88134765625 1162.882080078125 1020.8410034179688 1198.562255859375Q973.8006591796875 1234.242431640625 914.9003295898438 1252.4425048828125Q856 1270.642578125 789.1197509765625 1270.642578125Q666.999267578125 1270.642578125 572.4987182617188 1209.3023071289062Q477.9981689453125 1147.9620361328125 424.7177734375 1030.50146484375Q371.4373779296875 913.0408935546875 371.4373779296875 744Q371.4373779296875 573.439208984375 425.39776611328125 456.15863037109375Q479.358154296875 338.8780517578125 573.4987182617188 279.11773681640625Q667.6392822265625 219.357421875 788.3997802734375 219.357421875Q855.280029296875 219.357421875 914.0003662109375 237.87750244140625Q972.720703125 256.3975830078125 1020.1210327148438 291.75775146484375Q1067.5213623046875 327.117919921875 1099.5416259765625 378.59820556640625Q1131.5618896484375 430.0784912109375 1144.322021484375 495.9989013671875H1413.518798828125Q1398.838623046875 388.838623046875 1348.218505859375 295.5987548828125Q1297.598388671875 202.35888671875 1215.9784545898438 131.1591796875Q1134.3585205078125 59.95947265625 1025.578857421875 19.979736328125Q916.7991943359375 -20 784.7999267578125 -20Z"/></g></svg>